# xmcd
# 
# Track frame offsets:
#     150
#     15862
#     28497
#     46477
#     60812
#     74297
#     87062
#     101485
#     113277
#     126375
#     141705
#     157227
#     172180
#     187035
#     199522
# 
# Disc length: 2814
# 
# Revision: 1
# Processed by: cddbd v1.5.2PL0 Copyright (c) Steve Scherf et al.
# Submitted via: BonkEnc v1.0.15
# 
DISCID=d00afc0f
DTITLE=Dick Rivers r - Tendre Teddy Boy
DYEAR=2001
DGENRE=Chanson
TTITLE0=Lucifer rock
TTITLE1=Débrouille-toi
TTITLE2=A nous deux on va s'en sortir
TTITLE3=Arrête ton cirque
TTITLE4=Tout et tout de suite
TTITLE5=Pluie et brouilard
TTITLE6=Teddy boy
TTITLE7=T'avais pas besoin de moi
TTITLE8=Bonsoir tout le monde
TTITLE9=Dame de coeur
TTITLE10=Sortez-moi de ce film
TTITLE11=Laissez-nous le Golf Drouot
TTITLE12=Vingt deux les v'là
TTITLE13=Trois filles sur la terre
TTITLE14=Mais c'est trop tard
EXTD=
EXTT0=
EXTT1=
EXTT2=
EXTT3=
EXTT4=
EXTT5=
EXTT6=
EXTT7=
EXTT8=
EXTT9=
EXTT10=
EXTT11=
EXTT12=
EXTT13=
EXTT14=
PLAYORDER=
